<svg xmlns="http://www.w3.org/2000/svg" viewBox="0 0 24 24"><g transform="translate(3 4.5)"><path d="M0,0H24V24H0Z" transform="translate(-3 -4.5)" opacity="0"/><path d="M.054,10.18a.5.5,0,0,0,.656.68l2.5-1.153A14.381,14.381,0,0,1,9.89,8.4q.041,1.1.121,2.2l.068.939a.754.754,0,0,0,1.158.58,19.549,19.549,0,0,0,5.351-5.068l.46-.641a.5.5,0,0,0,0-.583l-.46-.641A19.55,19.55,0,0,0,11.238.12.754.754,0,0,0,10.08.7l-.068.939Q9.942,2.584,9.9,3.53H9.26A9.5,9.5,0,0,0,.784,8.738Z" transform="translate(0.5 0.88)"/></g></svg>